<?xml version="1.0" encoding="utf-8"?>
<!-- Generator: Adobe Illustrator 22.1.0, SVG Export Plug-In . SVG Version: 6.00 Build 0)  -->
<svg version="1.1" id="레이어_1" xmlns="http://www.w3.org/2000/svg" xmlns:xlink="http://www.w3.org/1999/xlink" x="0px"
	 y="0px" viewBox="0 0 840 832" style="enable-background:new 0 0 840 832;" xml:space="preserve">
<style type="text/css">
	.st0{fill:#F57E24;}
	.st1{fill:#FFFFFF;}
</style>
<path class="st0" d="M78.1,425.6c0.4-192.9,157.1-349,350.1-348.7c192.9,0.4,349.1,157,348.7,350c-0.4,193-157.1,349.1-350,348.7
	C233.8,775.3,77.7,618.6,78.1,425.6"/>
<path class="st1" d="M454.7,369.1c19.3-11.7,32.6-25.5,39.9-41.2c6.4-16.5,2.2-28.7-12.6-36.6c-14.9-7.9-34.8-7.5-59.7,1.1
	c-21.7,7-40,20-54.9,38.8c-14.9,18.9-24.8,36.2-29.6,51.8c5.6,2.4,14.4,4.4,26.4,6c12.1,1.6,23.3,1.6,33.8,0.1
	C416.6,387.5,435.4,380.9,454.7,369.1 M244.5,312.1c16.6-28.3,37.3-52.2,62.2-71.9c24.1-19.6,51.7-34.1,82.6-43.5
	c31-9.4,62.6-13.3,94.7-11.6c36.1,2.4,66.1,14.3,89.7,35.6c23.7,21.3,35.5,47.3,35.4,78c0,24.4-4.9,46.4-14.6,66.1
	c-9.7,19.7-22.2,37.3-37.5,53.1c-15.3,14.8-32.8,27.5-52.5,37.7c-19.8,10.2-39.7,17.6-59.7,22.3c-19.3,4.7-39.6,6.6-60.9,5.8
	c-21.3-0.8-38.8-3.6-52.4-8.4c2.3,14.2,11.9,28.3,28.8,42.6c16.9,14.2,40.5,20.5,71.1,19c20.1-0.7,42.6-6.2,67.5-16.4
	c24.9-10.2,45-20.8,60.3-31.8c11.3-4.7,21.5-4.5,30.7,0.7c9.2,5.1,16.6,12.4,22.3,21.9c4.8,9.5,7.7,19.5,9,30.1
	c1.2,10.7-0.6,19.1-5.5,25.3c-19.3,16.5-46.6,32-82,46.5c-35.4,14.5-70.3,22.1-104.9,22.8c-44.2,1.5-80.6-4.3-109-17.3
	c-28.5-13-50.8-30.2-66.8-51.4c-16.8-22.1-27.9-46.8-33-74.4c-5.1-27.6-6.5-56.2-4-86.2C218.5,371.8,228,340.4,244.5,312.1"/>
</svg>
