<?xml version="1.0" encoding="utf-8"?>
<!-- Generator: Adobe Illustrator 25.2.0, SVG Export Plug-In . SVG Version: 6.00 Build 0)  -->
<svg version="1.1" id="레이어_1" xmlns="http://www.w3.org/2000/svg" xmlns:xlink="http://www.w3.org/1999/xlink" x="0px"
	 y="0px" viewBox="0 0 512 512" style="enable-background:new 0 0 512 512;" xml:space="preserve">
<style type="text/css">
	.st0{fill:#EDEDED;}
	.st1{fill:#131312;}
	.st2{fill:#FFFFFF;}
</style>
<g>
	<path class="st0" d="M443.86,512H68.14C30.51,512,0,481.49,0,443.86V68.14C0,30.51,30.51,0,68.14,0h375.72
		C481.49,0,512,30.51,512,68.14v375.72C512,481.49,481.49,512,443.86,512z"/>
	<g>
		<path class="st1" d="M385.51,191.19c-2.96-11.07-11.68-19.79-22.75-22.75c-20.06-5.38-100.52-5.38-100.52-5.38
			s-80.46,0-100.52,5.38c-11.07,2.96-19.79,11.68-22.75,22.75c-5.38,20.06-5.38,61.93-5.38,61.93s0,41.86,5.38,61.93
			c2.96,11.07,11.68,19.79,22.75,22.75c20.06,5.38,100.52,5.38,100.52,5.38s80.46,0,100.52-5.38c11.07-2.96,19.79-11.68,22.75-22.75
			c5.38-20.06,5.38-61.93,5.38-61.93S390.88,211.26,385.51,191.19z"/>
		<polygon class="st2" points="236.51,291.71 303.35,253.12 236.51,214.53 		"/>
	</g>
</g>
</svg>
