<?xml version="1.0" encoding="utf-8"?>
<!-- Generator: Adobe Illustrator 22.1.0, SVG Export Plug-In . SVG Version: 6.00 Build 0)  -->
<svg version="1.1" id="레이어_1" xmlns="http://www.w3.org/2000/svg" xmlns:xlink="http://www.w3.org/1999/xlink" x="0px"
	 y="0px" viewBox="0 0 1122.5 1122.5" style="enable-background:new 0 0 1122.5 1122.5;" xml:space="preserve">
<g>
	<path d="M504.4,895.1C284.7,895.1,106,716.4,106,496.7S284.7,98.3,504.4,98.3s398.4,178.7,398.4,398.4S724,895.1,504.4,895.1z
		 M504.4,261.2c-129.9,0-235.5,105.7-235.5,235.5s105.7,235.5,235.5,235.5s235.5-105.7,235.5-235.5S634.2,261.2,504.4,261.2z"/>
</g>
<g>
	<path d="M679.9,786c67.9,67.9,135.9,135.9,203.8,203.8c79.6,79.6,203-43.7,123.4-123.4c-67.9-67.9-135.9-135.9-203.8-203.8
		C723.7,583,600.3,706.3,679.9,786L679.9,786z"/>
</g>
</svg>
